<svg width="11" height="20" viewBox="0 0 12 21" fill="none" xmlns="http://www.w3.org/2000/svg">
<path d="M0 10.439C0 10.8208 0.145996 11.1465 0.449219 11.4385L9.20898 20.0073C9.44482 20.2544 9.75928 20.3779 10.1187 20.3779C10.8486 20.3779 11.4214 19.8164 11.4214 19.0752C11.4214 18.7158 11.2754 18.3901 11.0283 18.1431L3.1333 10.439L11.0283 2.73486C11.2754 2.47656 11.4214 2.15088 11.4214 1.7915C11.4214 1.06152 10.8486 0.5 10.1187 0.5C9.75928 0.5 9.44482 0.623535 9.20898 0.870605L0.449219 9.43945C0.145996 9.73145 0.0112305 10.0571 0 10.439Z" fill="#246D8C"/>
</svg>
