<svg width="295" height="48" viewBox="0 0 295 48" fill="none" xmlns="http://www.w3.org/2000/svg">
<rect width="295" height="48" rx="6" fill="#F6FCF7"/>
<rect x="0.5" y="0.5" width="294" height="47" rx="5.5" stroke="#111113" stroke-opacity="0.2"/>
<path d="M93.625 21.9205C93.5644 21.3826 93.3144 20.9659 92.875 20.6705C92.4356 20.3712 91.8826 20.2216 91.2159 20.2216C90.7386 20.2216 90.3258 20.2973 89.9773 20.4489C89.6288 20.5966 89.358 20.8011 89.1648 21.0625C88.9754 21.3201 88.8807 21.6136 88.8807 21.9432C88.8807 22.2197 88.9451 22.4583 89.0739 22.6591C89.2064 22.8598 89.3788 23.0284 89.5909 23.1648C89.8068 23.2973 90.0379 23.4091 90.2841 23.5C90.5303 23.5871 90.767 23.6591 90.9943 23.7159L92.1307 24.0114C92.5019 24.1023 92.8826 24.2254 93.2727 24.3807C93.6629 24.536 94.0246 24.7405 94.358 24.9943C94.6913 25.2481 94.9602 25.5625 95.1648 25.9375C95.3731 26.3125 95.4773 26.7614 95.4773 27.2841C95.4773 27.9432 95.3068 28.5284 94.9659 29.0398C94.6288 29.5511 94.1383 29.9545 93.4943 30.25C92.8542 30.5455 92.0795 30.6932 91.1705 30.6932C90.2992 30.6932 89.5455 30.5549 88.9091 30.2784C88.2727 30.0019 87.7746 29.6098 87.4148 29.1023C87.0549 28.5909 86.8561 27.9848 86.8182 27.2841H88.5795C88.6136 27.7045 88.75 28.0549 88.9886 28.3352C89.2311 28.6117 89.5398 28.8182 89.9148 28.9545C90.2936 29.0871 90.7083 29.1534 91.1591 29.1534C91.6553 29.1534 92.0966 29.0758 92.483 28.9205C92.8731 28.7614 93.1799 28.5417 93.4034 28.2614C93.6269 27.9773 93.7386 27.6458 93.7386 27.267C93.7386 26.9223 93.6402 26.6402 93.4432 26.4205C93.25 26.2008 92.9867 26.0189 92.6534 25.875C92.3239 25.7311 91.9508 25.6042 91.5341 25.4943L90.1591 25.1193C89.2273 24.8655 88.4886 24.4924 87.9432 24C87.4015 23.5076 87.1307 22.8561 87.1307 22.0455C87.1307 21.375 87.3125 20.7898 87.6761 20.2898C88.0398 19.7898 88.5322 19.4015 89.1534 19.125C89.7746 18.8447 90.4754 18.7045 91.2557 18.7045C92.0436 18.7045 92.7386 18.8428 93.3409 19.1193C93.947 19.3958 94.4242 19.7765 94.7727 20.2614C95.1212 20.7424 95.303 21.2955 95.3182 21.9205H93.625ZM97.4389 30.5V21.7727H99.1378V30.5H97.4389ZM98.2969 20.4261C98.0014 20.4261 97.7476 20.3277 97.5355 20.1307C97.3272 19.9299 97.223 19.6913 97.223 19.4148C97.223 19.1345 97.3272 18.8958 97.5355 18.6989C97.7476 18.4981 98.0014 18.3977 98.2969 18.3977C98.5923 18.3977 98.8442 18.4981 99.0526 18.6989C99.2647 18.8958 99.3707 19.1345 99.3707 19.4148C99.3707 19.6913 99.2647 19.9299 99.0526 20.1307C98.8442 20.3277 98.5923 20.4261 98.2969 20.4261ZM105.082 33.9545C104.389 33.9545 103.793 33.8636 103.293 33.6818C102.796 33.5 102.391 33.2595 102.077 32.9602C101.762 32.661 101.527 32.3333 101.372 31.9773L102.832 31.375C102.935 31.5417 103.071 31.7178 103.241 31.9034C103.416 32.0928 103.651 32.2538 103.946 32.3864C104.245 32.5189 104.63 32.5852 105.099 32.5852C105.743 32.5852 106.276 32.428 106.696 32.1136C107.116 31.803 107.327 31.3068 107.327 30.625V28.9091H107.219C107.116 29.0947 106.969 29.3011 106.776 29.5284C106.586 29.7557 106.325 29.9527 105.991 30.1193C105.658 30.286 105.224 30.3693 104.69 30.3693C104.001 30.3693 103.38 30.2083 102.827 29.8864C102.277 29.5606 101.842 29.0814 101.52 28.4489C101.202 27.8125 101.043 27.0303 101.043 26.1023C101.043 25.1742 101.2 24.3788 101.514 23.7159C101.832 23.053 102.268 22.5455 102.821 22.1932C103.374 21.8371 104.001 21.6591 104.702 21.6591C105.243 21.6591 105.681 21.75 106.014 21.9318C106.348 22.1098 106.607 22.3182 106.793 22.5568C106.982 22.7955 107.128 23.0057 107.23 23.1875H107.355V21.7727H109.02V30.6932C109.02 31.4432 108.846 32.0587 108.497 32.5398C108.149 33.0208 107.677 33.3769 107.082 33.608C106.491 33.839 105.825 33.9545 105.082 33.9545ZM105.065 28.9602C105.554 28.9602 105.967 28.8466 106.304 28.6193C106.645 28.3883 106.902 28.0587 107.077 27.6307C107.255 27.1989 107.344 26.6818 107.344 26.0795C107.344 25.4924 107.257 24.9754 107.082 24.5284C106.908 24.0814 106.652 23.733 106.315 23.483C105.978 23.2292 105.562 23.1023 105.065 23.1023C104.554 23.1023 104.128 23.2348 103.787 23.5C103.446 23.7614 103.188 24.1174 103.014 24.5682C102.844 25.0189 102.759 25.5227 102.759 26.0795C102.759 26.6515 102.846 27.1534 103.02 27.5852C103.194 28.017 103.452 28.3542 103.793 28.5966C104.137 28.839 104.562 28.9602 105.065 28.9602ZM112.997 25.3182V30.5H111.298V21.7727H112.929V23.1932H113.037C113.238 22.7311 113.552 22.3598 113.98 22.0795C114.412 21.7992 114.955 21.6591 115.611 21.6591C116.205 21.6591 116.726 21.7841 117.173 22.0341C117.62 22.2803 117.967 22.6477 118.213 23.1364C118.459 23.625 118.582 24.2292 118.582 24.9489V30.5H116.884V25.1534C116.884 24.5208 116.719 24.0265 116.389 23.6705C116.06 23.3106 115.607 23.1307 115.031 23.1307C114.637 23.1307 114.287 23.2159 113.98 23.3864C113.677 23.5568 113.437 23.8068 113.259 24.1364C113.084 24.4621 112.997 24.8561 112.997 25.3182ZM125.095 30.5V21.7727H126.794V30.5H125.095ZM125.953 20.4261C125.658 20.4261 125.404 20.3277 125.192 20.1307C124.983 19.9299 124.879 19.6913 124.879 19.4148C124.879 19.1345 124.983 18.8958 125.192 18.6989C125.404 18.4981 125.658 18.3977 125.953 18.3977C126.249 18.3977 126.5 18.4981 126.709 18.6989C126.921 18.8958 127.027 19.1345 127.027 19.4148C127.027 19.6913 126.921 19.9299 126.709 20.1307C126.5 20.3277 126.249 20.4261 125.953 20.4261ZM130.778 25.3182V30.5H129.08V21.7727H130.71V23.1932H130.818C131.019 22.7311 131.333 22.3598 131.761 22.0795C132.193 21.7992 132.737 21.6591 133.392 21.6591C133.987 21.6591 134.508 21.7841 134.955 22.0341C135.402 22.2803 135.748 22.6477 135.994 23.1364C136.241 23.625 136.364 24.2292 136.364 24.9489V30.5H134.665V25.1534C134.665 24.5208 134.5 24.0265 134.17 23.6705C133.841 23.3106 133.388 23.1307 132.812 23.1307C132.419 23.1307 132.068 23.2159 131.761 23.3864C131.458 23.5568 131.218 23.8068 131.04 24.1364C130.866 24.4621 130.778 24.8561 130.778 25.3182ZM144.768 30.5L142.2 21.7727H143.956L145.666 28.1818H145.751L147.467 21.7727H149.223L150.928 28.1534H151.013L152.712 21.7727H154.467L151.905 30.5H150.172L148.399 24.1989H148.268L146.496 30.5H144.768ZM156.08 30.5V21.7727H157.778V30.5H156.08ZM156.938 20.4261C156.642 20.4261 156.388 20.3277 156.176 20.1307C155.968 19.9299 155.864 19.6913 155.864 19.4148C155.864 19.1345 155.968 18.8958 156.176 18.6989C156.388 18.4981 156.642 18.3977 156.938 18.3977C157.233 18.3977 157.485 18.4981 157.693 18.6989C157.905 18.8958 158.011 19.1345 158.011 19.4148C158.011 19.6913 157.905 19.9299 157.693 20.1307C157.485 20.3277 157.233 20.4261 156.938 20.4261ZM164.138 21.7727V23.1364H159.371V21.7727H164.138ZM160.649 19.6818H162.348V27.9375C162.348 28.267 162.397 28.5152 162.496 28.6818C162.594 28.8447 162.721 28.9564 162.876 29.017C163.036 29.0739 163.208 29.1023 163.393 29.1023C163.53 29.1023 163.649 29.0928 163.751 29.0739C163.854 29.0549 163.933 29.0398 163.99 29.0284L164.297 30.4318C164.198 30.4697 164.058 30.5076 163.876 30.5455C163.695 30.5871 163.467 30.6098 163.195 30.6136C162.748 30.6212 162.331 30.5417 161.945 30.375C161.558 30.2083 161.246 29.9508 161.007 29.6023C160.768 29.2538 160.649 28.8163 160.649 28.2898V19.6818ZM167.903 25.3182V30.5H166.205V18.8636H167.881V23.1932H167.989C168.193 22.7235 168.506 22.3504 168.926 22.0739C169.347 21.7973 169.896 21.6591 170.574 21.6591C171.172 21.6591 171.695 21.7822 172.142 22.0284C172.593 22.2746 172.941 22.642 173.188 23.1307C173.438 23.6155 173.562 24.2216 173.562 24.9489V30.5H171.864V25.1534C171.864 24.5133 171.699 24.017 171.369 23.6648C171.04 23.3087 170.581 23.1307 169.994 23.1307C169.593 23.1307 169.233 23.2159 168.915 23.3864C168.6 23.5568 168.352 23.8068 168.17 24.1364C167.992 24.4621 167.903 24.8561 167.903 25.3182ZM181.183 30.5H179.32L183.507 18.8636H185.536L189.723 30.5H187.859L184.57 20.9773H184.479L181.183 30.5ZM181.496 25.9432H187.541V27.4205H181.496V25.9432ZM191.267 33.7727V21.7727H192.926V23.1875H193.068C193.167 23.0057 193.309 22.7955 193.494 22.5568C193.68 22.3182 193.938 22.1098 194.267 21.9318C194.597 21.75 195.032 21.6591 195.574 21.6591C196.278 21.6591 196.907 21.8371 197.46 22.1932C198.013 22.5492 198.447 23.0625 198.761 23.733C199.08 24.4034 199.239 25.2102 199.239 26.1534C199.239 27.0966 199.081 27.9053 198.767 28.5795C198.453 29.25 198.021 29.767 197.472 30.1307C196.922 30.4905 196.295 30.6705 195.591 30.6705C195.061 30.6705 194.627 30.5814 194.29 30.4034C193.956 30.2254 193.695 30.017 193.506 29.7784C193.316 29.5398 193.17 29.3277 193.068 29.142H192.966V33.7727H191.267ZM192.932 26.1364C192.932 26.75 193.021 27.2879 193.199 27.75C193.377 28.2121 193.634 28.5739 193.972 28.8352C194.309 29.0928 194.722 29.2216 195.21 29.2216C195.718 29.2216 196.142 29.0871 196.483 28.8182C196.824 28.5455 197.081 28.1761 197.256 27.7102C197.434 27.2443 197.523 26.7197 197.523 26.1364C197.523 25.5606 197.436 25.0436 197.261 24.5852C197.091 24.1269 196.833 23.7652 196.489 23.5C196.148 23.2348 195.722 23.1023 195.21 23.1023C194.718 23.1023 194.301 23.2292 193.96 23.483C193.623 23.7367 193.367 24.0909 193.193 24.5455C193.019 25 192.932 25.5303 192.932 26.1364ZM201.142 33.7727V21.7727H202.801V23.1875H202.943C203.042 23.0057 203.184 22.7955 203.369 22.5568C203.555 22.3182 203.813 22.1098 204.142 21.9318C204.472 21.75 204.907 21.6591 205.449 21.6591C206.153 21.6591 206.782 21.8371 207.335 22.1932C207.888 22.5492 208.322 23.0625 208.636 23.733C208.955 24.4034 209.114 25.2102 209.114 26.1534C209.114 27.0966 208.956 27.9053 208.642 28.5795C208.328 29.25 207.896 29.767 207.347 30.1307C206.797 30.4905 206.17 30.6705 205.466 30.6705C204.936 30.6705 204.502 30.5814 204.165 30.4034C203.831 30.2254 203.57 30.017 203.381 29.7784C203.191 29.5398 203.045 29.3277 202.943 29.142H202.841V33.7727H201.142ZM202.807 26.1364C202.807 26.75 202.896 27.2879 203.074 27.75C203.252 28.2121 203.509 28.5739 203.847 28.8352C204.184 29.0928 204.597 29.2216 205.085 29.2216C205.593 29.2216 206.017 29.0871 206.358 28.8182C206.699 28.5455 206.956 28.1761 207.131 27.7102C207.309 27.2443 207.398 26.7197 207.398 26.1364C207.398 25.5606 207.311 25.0436 207.136 24.5852C206.966 24.1269 206.708 23.7652 206.364 23.5C206.023 23.2348 205.597 23.1023 205.085 23.1023C204.593 23.1023 204.176 23.2292 203.835 23.483C203.498 23.7367 203.242 24.0909 203.068 24.5455C202.894 25 202.807 25.5303 202.807 26.1364ZM212.716 18.8636V30.5H211.017V18.8636H212.716ZM218.763 30.6761C217.903 30.6761 217.162 30.4924 216.541 30.125C215.924 29.7538 215.446 29.233 215.109 28.5625C214.776 27.8883 214.609 27.0985 214.609 26.1932C214.609 25.2992 214.776 24.5114 215.109 23.8295C215.446 23.1477 215.916 22.6155 216.518 22.233C217.125 21.8504 217.833 21.6591 218.643 21.6591C219.136 21.6591 219.613 21.7405 220.075 21.9034C220.537 22.0663 220.952 22.322 221.32 22.6705C221.687 23.0189 221.977 23.4716 222.189 24.0284C222.401 24.5814 222.507 25.2538 222.507 26.0455V26.6477H215.57V25.375H220.842C220.842 24.928 220.751 24.5322 220.57 24.1875C220.388 23.839 220.132 23.5644 219.803 23.3636C219.477 23.1629 219.094 23.0625 218.655 23.0625C218.178 23.0625 217.761 23.1799 217.405 23.4148C217.053 23.6458 216.78 23.9489 216.587 24.3239C216.397 24.6951 216.303 25.0985 216.303 25.5341V26.5284C216.303 27.1117 216.405 27.608 216.609 28.017C216.818 28.4261 217.107 28.7386 217.479 28.9545C217.85 29.1667 218.284 29.2727 218.78 29.2727C219.102 29.2727 219.395 29.2273 219.661 29.1364C219.926 29.0417 220.155 28.9015 220.348 28.7159C220.541 28.5303 220.689 28.3011 220.791 28.0284L222.399 28.3182C222.27 28.7917 222.039 29.2064 221.706 29.5625C221.376 29.9148 220.962 30.1894 220.462 30.3864C219.965 30.5795 219.399 30.6761 218.763 30.6761Z" fill="black"/>
<path d="M71.3175 17.4737C71.6798 17.0561 71.956 16.5711 72.1304 16.0465C72.3047 15.5219 72.3737 14.968 72.3333 14.4166C71.2211 14.5064 70.1886 15.0295 69.4583 15.8733C69.1086 16.2777 68.8436 16.7481 68.679 17.2568C68.5144 17.7654 68.4535 18.3019 68.5 18.8345C69.0425 18.8391 69.5789 18.7187 70.0674 18.4827C70.556 18.2467 70.9837 17.9015 71.3175 17.4737ZM73.7325 24.6037C73.7389 23.8694 73.9323 23.1488 74.2945 22.5099C74.6567 21.8711 75.1757 21.3351 75.8025 20.9525C75.4069 20.3825 74.884 19.9125 74.2751 19.5798C73.6663 19.2471 72.9883 19.0609 72.295 19.0358C70.8 18.8825 69.42 19.9079 68.6246 19.9079C67.8292 19.9079 66.7079 19.055 65.4621 19.0741C64.6476 19.101 63.854 19.3384 63.1587 19.7633C62.4633 20.1883 61.89 20.7862 61.4946 21.4987C59.8079 24.4312 61.0633 28.7916 62.75 31.1587C63.5167 32.3183 64.475 33.6312 65.74 33.5833C67.005 33.5354 67.4171 32.7975 68.8833 32.7975C70.3496 32.7975 70.8 33.5833 72.0458 33.5545C73.2917 33.5258 74.1733 32.3662 74.9783 31.2066C75.5486 30.3648 75.994 29.4448 76.3008 28.4754C75.5413 28.1515 74.8933 27.6122 74.4369 26.9241C73.9805 26.2361 73.7356 25.4294 73.7325 24.6037Z" fill="black"/>
</svg>
