<svg width="160" height="138" viewBox="0 0 160 138" fill="none" xmlns="http://www.w3.org/2000/svg">
<path fill-rule="evenodd" clip-rule="evenodd" d="M77.1765 1.75C77.5775 3.833 80.1235 4.088 80.7825 2.111C81.0635 1.268 80.8015 0.995998 80.1165 1.42C79.4945 1.804 78.9865 1.641 78.9865 1.059C78.9865 0.476998 78.5035 0 77.9135 0C77.3225 0 76.9915 0.788 77.1765 1.75ZM75.0195 6.75C75.0385 7.163 75.9065 8.524 76.9495 9.774L78.8465 12.049L81.3105 9.585C84.0635 6.832 83.6635 5.077 80.8615 7.613C79.2165 9.102 78.9455 9.102 77.4585 7.615C75.6935 5.85 74.9685 5.593 75.0195 6.75ZM73.4065 10.25C73.7255 11.212 74.2345 12.611 74.5385 13.357C74.9365 14.334 73.8425 14.885 70.6275 15.326C62.8375 16.393 51.8435 22.282 46.2845 28.364C40.5415 34.648 37.2745 40.688 38.7965 42.21C39.4665 42.88 40.4705 41.694 41.8235 38.637C43.9855 33.749 51.0785 26.229 57.1325 22.408C66.4595 16.52 79.7785 14.503 90.4865 17.356C96.9565 19.08 100.456 20.932 106.96 26.073C110.803 29.111 111.882 30.466 110.876 30.992C110.112 31.392 103.187 33.107 95.4865 34.803C87.7865 36.499 70.2365 40.443 56.4865 43.567C42.7365 46.692 30.3615 49.454 28.9865 49.705C24.0075 50.616 23.3075 51.034 25.0905 52.035C26.1645 52.638 32.1165 51.614 43.0905 48.938C59.9345 44.831 87.9045 38.582 116.987 32.428C136.351 28.331 137.17 28.106 136.52 27.054C136.007 26.224 131.913 26.822 121.258 29.284C115.177 30.688 115.028 30.672 112.862 28.367C108.497 23.721 98.4745 18.073 91.4675 16.31C87.6275 15.344 84.2785 14.409 84.0245 14.231C83.7705 14.054 84.1525 12.964 84.8735 11.81C86.0275 9.962 85.9835 9.787 84.5035 10.355C83.5795 10.71 82.6345 11 82.4045 11C82.1745 11 81.9865 11.675 81.9865 12.5C81.9865 14.993 77.7445 14.213 75.1935 11.25C73.7635 9.589 73.0555 9.193 73.4065 10.25ZM65.5455 22.959C66.1445 23.558 71.5775 23.613 79.9955 23.106L93.4865 22.293L79.0365 22.147C69.8135 22.053 64.9335 22.347 65.5455 22.959ZM59.3365 26.25C58.7775 27.146 93.1995 27.039 97.4355 26.132C99.0575 25.784 91.2545 25.5 80.0955 25.5C68.9355 25.5 59.5945 25.838 59.3365 26.25ZM69.9865 29.916C66.2955 30.968 87.6105 32.038 92.4865 31.045C95.6055 30.409 94.1375 30.205 85.8185 30.115C79.9505 30.052 74.5505 29.821 73.8185 29.601C73.0855 29.382 71.3615 29.524 69.9865 29.916ZM60.2555 30.693C61.2285 30.947 62.5785 30.93 63.2555 30.656C63.9325 30.382 63.1365 30.175 61.4865 30.195C59.8365 30.215 59.2825 30.439 60.2555 30.693ZM155.987 30.988C155.162 31.514 151.893 32.241 148.723 32.603C144.462 33.09 143.214 33.569 143.936 34.439C145.338 36.128 145.22 74.014 143.808 75.716C142.069 77.811 143.085 77.942 148.988 76.388C152.013 75.592 155.274 75.137 156.237 75.377C157.372 75.66 157.991 75.231 157.998 74.156C158.004 73.245 158.287 70.7 158.627 68.5L159.245 64.5L156.834 68C155.376 70.116 153.446 71.616 151.955 71.793C149.511 72.082 149.487 72.005 149.487 64.044C149.487 57.142 149.728 56.002 151.187 56.001C152.122 56.001 153.346 56.787 153.907 57.75C154.683 59.082 154.933 58.072 154.957 53.527C154.986 47.84 154.913 47.661 153.43 49.777C152.574 51 151.205 52 150.388 52C149.177 52 148.957 50.569 149.195 44.25C149.485 36.562 149.51 36.497 152.322 36.175C154.18 35.963 155.634 36.48 156.54 37.675C157.781 39.312 157.927 39.01 157.955 34.75C157.973 32.138 157.874 30.007 157.737 30.015C157.6 30.024 156.812 30.461 155.987 30.988ZM62.9865 33.387C62.9865 33.599 64.3125 33.968 65.9335 34.206C67.5545 34.443 68.6535 34.27 68.3745 33.819C67.8795 33.017 62.9865 32.625 62.9865 33.387ZM26.5575 35.571C25.6935 36.436 24.9865 37.979 24.9865 39C24.9865 41.177 27.5355 44 29.5015 44C31.2025 44 33.9865 40.159 33.9865 37.813C33.9865 36.152 31.2415 34 29.1235 34C28.5765 34 27.4225 34.707 26.5575 35.571ZM138.661 36.25C137.344 38.139 137.083 38.219 137.039 36.75C137.011 35.787 136.222 35 135.287 35C133.965 35 133.854 35.267 134.787 36.2C135.63 37.043 135.987 42.662 135.987 55.078C135.987 69.504 135.713 72.982 134.5 73.989C133.682 74.668 132.313 74.955 131.458 74.627C130.113 74.111 129.943 71.479 130.195 55.109C130.356 44.703 130.149 36.397 129.737 36.653C129.325 36.909 128.987 37.766 128.987 38.559C128.987 40.453 127.359 40.412 126.625 38.5C126.309 37.675 125.57 37 124.983 37C124.239 37 124.229 37.584 124.952 38.934C125.55 40.052 125.987 48.103 125.987 58C125.987 67.897 126.424 75.948 127.022 77.066C128.215 79.295 133.522 79.677 136.074 77.718C139.522 75.071 139.987 72.283 139.987 54.266C139.987 41.703 140.343 36.044 141.187 35.2C141.969 34.418 142.012 34 141.309 34C140.716 34 139.525 35.013 138.661 36.25ZM31.6505 37.567C32.5605 39.939 30.4275 41.611 28.5165 40.025C27.3325 39.042 27.2325 38.409 28.0965 37.367C29.5945 35.563 30.9095 35.637 31.6505 37.567ZM47.9865 37C47.9865 37.567 50.6895 37.97 54.2365 37.93C58.6545 37.88 59.9005 37.607 58.4865 37C55.6795 35.794 47.9865 35.794 47.9865 37ZM111.218 42.55C109.991 43.41 108.987 44.763 108.987 45.557C108.987 46.351 108.507 47 107.92 47C107.278 47 107.123 46.103 107.532 44.75C108.006 43.183 107.89 42.803 107.15 43.5C105.433 45.118 104.426 75.231 105.965 78.948C107.308 82.189 110.463 83.632 114.118 82.676C115.273 82.374 117.029 82.634 118.021 83.253C119.391 84.109 120.205 84.064 121.406 83.067C123.497 81.332 123.565 76.841 121.487 77.638C120.19 78.136 119.987 75.902 119.987 61.107C119.987 50.369 119.615 44 118.987 44C118.437 44 117.98 44.563 117.972 45.25C117.964 45.938 117.402 45.411 116.722 44.079C115.128 40.954 113.96 40.63 111.218 42.55ZM99.3535 44.672L98.6835 47.344L96.9245 45.172C95.9575 43.977 94.8105 43 94.3765 43C93.9415 43 94.1265 43.54 94.7865 44.2C96.3285 45.742 96.4755 82.217 94.9515 85.066C94.0655 86.721 94.2455 86.99 96.2015 86.93C99.7095 86.822 102.58 85.484 101.171 84.613C99.4845 83.571 99.4995 44.887 101.187 43.2C102.099 42.288 102.103 42 101.206 42C100.557 42 99.7225 43.202 99.3535 44.672ZM114.929 44.43C115.753 45.423 116.02 50.008 115.802 59.421C115.52 71.545 115.302 72.983 113.737 72.991C111.727 73.001 111.481 74.094 113.12 75.733C114.679 77.292 113.444 80.113 111.525 79.376C110.226 78.878 109.987 76.191 109.987 62.093C109.987 50.443 110.35 45.037 111.187 44.2C112.745 42.642 113.482 42.687 114.929 44.43ZM90.9865 45.375C90.9865 46.131 89.6365 47.02 87.9865 47.35C86.0535 47.737 84.9585 48.581 84.9075 49.725C84.8605 50.772 84.6215 50.987 84.3245 50.25C84.0465 49.563 82.5445 49 80.9865 49C79.4285 49 77.9265 48.438 77.6485 47.75C77.3715 47.063 77.1085 48.288 77.0655 50.473C76.9885 54.347 77.0255 54.39 78.5435 52.223C79.3995 51 80.5245 50 81.0435 50C82.5745 50 82.2715 88.731 80.7365 89.28C77.8525 90.31 80.9055 90.861 84.3015 89.923C87.5125 89.037 87.8695 88.651 86.9955 87.016C86.4235 85.948 85.9865 77.302 85.9865 67.066C85.9865 49.82 86.0755 49 87.9365 49C89.0095 49 90.3455 49.787 90.9065 50.75C91.7155 52.139 91.9315 51.623 91.9565 48.25C91.9725 45.912 91.7615 44 91.4865 44C91.2115 44 90.9865 44.619 90.9865 45.375ZM16.7365 46.25C16.3585 47.213 15.1575 48 14.0675 48C12.9765 48 9.81652 48.486 7.04352 49.081C2.57652 50.039 2.11552 50.373 2.99452 52.015C3.54052 53.035 3.98652 58.848 3.98652 64.934C3.98652 74.104 3.72952 76 2.48652 76C0.564519 76 0.564519 77.405 2.48652 79C3.67352 79.985 3.98652 82.85 3.98652 92.712C3.98652 104.434 3.85152 105.288 1.73652 107.004C-1.72948 109.813 -0.0294828 110.125 7.03852 107.976C10.5845 106.898 14.5135 106.012 15.7675 106.008C18.2695 105.999 18.5395 105.499 19.4145 99.25C20.0335 94.833 18.6535 93.31 17.6035 97.25C16.6485 100.833 15.5595 101.975 12.1665 102.948L8.98652 103.86V91.43C8.98652 79.603 9.08452 79 11.0175 79C12.1355 79 13.3085 79.675 13.6245 80.5C14.8485 83.688 15.9865 81.76 15.9865 76.5C15.9865 70.669 15.2535 69.742 13.2185 73C12.5315 74.1 11.2835 75 10.4455 75C9.15352 75 8.96452 73.287 9.20352 63.75L9.48652 52.5L12.6405 52.194C15.0045 51.964 16.1945 52.459 17.3905 54.166C18.8675 56.276 18.9825 56.298 18.9285 54.473C18.8975 53.388 18.5455 50.7 18.1475 48.5C17.6225 45.598 17.2355 44.98 16.7365 46.25ZM73.6535 48.667C73.2865 49.033 72.9865 51.283 72.9865 53.667C72.9865 56.05 72.5365 58 71.9865 58C71.4365 58 70.9865 56.227 70.9865 54.059C70.9865 51.891 70.6485 49.908 70.2365 49.652C69.8245 49.395 69.5785 54.431 69.6915 60.843C69.8965 72.465 69.8925 72.487 68.3765 68C64.5735 56.74 63.7555 55 62.2645 55C61.4075 55 60.0615 54.213 59.2725 53.25C58.4835 52.287 58.1315 52.076 58.4895 52.78C59.6215 55.003 59.0175 93.257 57.8285 94.691C56.9965 95.693 57.1805 95.977 58.6145 95.9C62.3785 95.7 65.5115 94.443 64.2265 93.648C63.3505 93.107 62.9865 89.329 62.9865 80.774C62.9865 74.115 63.2185 68.899 63.5015 69.182C63.7855 69.465 64.6855 72.24 65.5015 75.349C66.3185 78.457 67.6545 83.543 68.4715 86.651C70.2325 93.356 70.2435 93.371 72.9635 92.507C74.4405 92.039 74.7965 91.475 74.1275 90.666C73.5275 89.942 73.4135 81.633 73.8245 68.749C74.1885 57.336 74.4495 47.998 74.4035 47.999C74.3575 48 74.0195 48.3 73.6535 48.667ZM53.0865 54.25C53.0155 55.496 52.1425 56 50.0575 56C48.4475 56 46.4205 56.708 45.5555 57.574C44.1225 59.007 43.9265 59.007 43.3765 57.574C41.8435 53.578 41.5045 57.424 41.7425 76.14C41.9205 90.176 41.6505 96.7 40.8495 97.665C38.9885 99.908 40.1515 99.99 47.5155 98.137L54.4865 96.383L54.7355 91.942C54.9825 87.539 54.9715 87.523 53.5095 90.144C52.6975 91.598 50.6735 93.262 49.0105 93.842L45.9865 94.896V86.555C45.9865 77.694 47.2655 75.422 50.4575 78.614C51.8295 79.986 51.9865 79.603 51.9865 74.883V69.623L49.9475 71.811C48.8265 73.015 47.4765 74 46.9475 74C46.4185 74 45.9865 70.673 45.9865 66.607C45.9865 60.788 46.3235 59.085 47.5685 58.607C50.2805 57.566 52.2155 57.933 53.5945 59.75C54.8385 61.389 54.9185 61.373 54.8555 59.5C54.7575 56.625 53.2125 52.038 53.0865 54.25ZM37.1255 56.893C36.3775 57.367 35.0125 57.558 34.0935 57.318C32.7005 56.953 32.4845 57.529 32.7935 60.774C33.1205 64.205 30.4645 85.855 29.6115 86.708C29.4315 86.888 28.5075 81.153 27.5575 73.964C26.1165 63.06 26.0505 60.627 27.1585 59.283C28.3405 57.85 28.2535 57.797 26.3675 58.801C25.2025 59.422 23.9845 59.665 23.6615 59.341C23.3375 59.018 22.3585 59.027 21.4865 59.362C20.3075 59.814 20.1455 60.429 20.8575 61.759C21.3835 62.742 22.7615 70.061 23.9185 78.023C26.8725 98.345 27.9045 103 29.4535 103C30.9765 103 33.1215 92.381 35.5115 73C36.3595 66.125 37.4795 59.487 37.9985 58.25C39.0575 55.729 39.0295 55.686 37.1255 56.893ZM131.987 85.191C126.423 86.799 84.0615 96.384 52.9865 103.068C37.3115 106.439 23.8275 109.828 23.0225 110.599C20.9645 112.568 22.4055 112.475 34.0265 109.887L43.5665 107.763L49.1455 113.21C55.0735 118.997 61.3215 122.465 69.1895 124.334C72.5455 125.131 73.8585 125.892 73.4985 126.83C72.4525 129.555 74.2795 130.263 76.2225 127.886C77.7885 125.97 78.0495 125.879 77.5455 127.42C76.8575 129.528 78.5425 131.107 80.6275 130.308C81.6215 129.926 81.6915 129.266 80.9115 127.65C79.9035 125.562 79.9305 125.565 81.8405 127.75C84.3765 130.651 85.3345 130.603 84.7615 127.603C84.3535 125.467 84.7435 125.134 88.3425 124.559C95.7945 123.367 104.378 118.425 110.524 111.787C115.888 105.992 121.597 96.274 120.36 95.042C119.713 94.399 117.742 96.944 112.987 104.56C110.856 107.974 107.141 111.911 103.487 114.63C91.1255 123.826 75.9695 125.435 62.4535 118.984C55.6205 115.723 47.1175 108.384 48.6365 107.058C49.1035 106.65 52.1865 105.756 55.4865 105.071C58.7865 104.387 72.9615 101.209 86.9865 98.01C101.012 94.812 118.225 90.914 125.237 89.348C133.258 87.557 137.987 86.038 137.987 85.251C137.987 83.803 136.833 83.792 131.987 85.191ZM125.654 95.065C123.823 97.679 124.637 100.934 127.375 101.952C132.531 103.869 136.257 98.413 132.416 94.571C130.242 92.398 127.376 92.607 125.654 95.065ZM131.737 97.749C132.284 99.392 129.151 100.564 127.807 99.22C127.232 98.645 127.079 97.66 127.467 97.032C128.351 95.602 131.181 96.078 131.737 97.749ZM99.4865 98.433C96.1865 99.081 94.1505 99.844 94.9625 100.13C96.5595 100.693 111.829 98.491 112.756 97.564C113.665 96.655 105.989 97.158 99.4865 98.433ZM81.9865 103.077C77.7635 103.453 81.4125 103.715 92.4035 103.827C101.708 103.922 109.035 103.715 108.687 103.366C107.854 102.533 90.2535 102.343 81.9865 103.077ZM58.9865 108.065C58.9865 108.616 67.8195 109 80.4865 109C93.1535 109 101.987 108.616 101.987 108.065C101.987 107.514 93.1535 107.13 80.4865 107.13C67.8195 107.13 58.9865 107.514 58.9865 108.065ZM122.987 109C122.987 109.55 123.662 110 124.487 110C125.312 110 125.987 109.55 125.987 109C125.987 108.45 125.312 108 124.487 108C123.662 108 122.987 108.45 122.987 109ZM128.987 109.059C128.987 109.641 129.437 109.84 129.987 109.5C130.537 109.16 130.987 108.684 130.987 108.441C130.987 108.198 130.537 108 129.987 108C129.437 108 128.987 108.477 128.987 109.059ZM64.7365 111.81C62.6745 111.981 60.9865 112.431 60.9865 112.81C60.9855 113.559 97.9185 113.401 98.6705 112.649C99.8845 111.436 76.3055 110.853 64.7365 111.81ZM33.6255 114.694C32.4995 115.82 32.9405 117 34.4865 117C35.3115 117 35.9865 116.577 35.9865 116.059C35.9865 114.798 34.4245 113.895 33.6255 114.694ZM67.9865 117C69.9815 118.289 90.6895 118.289 91.4865 117C91.8865 116.353 87.5835 116.005 79.2955 116.015C70.6555 116.026 66.9745 116.346 67.9865 117ZM77.3225 134.567C76.4885 136.739 78.6045 138.782 80.1195 137.267C81.3995 135.987 80.6065 133 78.9865 133C78.4015 133 77.6535 133.705 77.3225 134.567Z" fill="#246D8C"/>
</svg>
